<svg id="Слой_1" data-name="Слой 1" xmlns="http://www.w3.org/2000/svg" viewBox="0 0 119.35 159.18"><defs><style>.cls-1{fill:#765657;}</style></defs><title>leoray2</title><path class="cls-1" d="M257.79,320.86l1.49,1.72H238.55v-70.5H242v68.78Z" transform="translate(-238.55 -250.99)"/><path class="cls-1" d="M282.65,320.85c.5.58,1,1.14,1.49,1.72H263.41v-70.5h20.73c-.49.58-1,1.14-1.49,1.72H266.87v24.34H280.7c-.42.58-.84,1.14-1.25,1.72H266.87v41Z" transform="translate(-238.55 -250.99)"/><path class="cls-1" d="M357.9,287.33A36.34,36.34,0,1,1,321.56,251,36.34,36.34,0,0,1,357.9,287.33Zm-13.09-23.25c-13.51-13.52-34.88-14.07-47.72-1.22s-12.31,34.21,1.21,47.73,34.89,14.06,47.73,1.22S358.33,277.59,344.81,264.08Z" transform="translate(-238.55 -250.99)"/><path class="cls-1" d="M245.45,336.38a22.26,22.26,0,0,1,8.36,42.89c21.58,34.3,54.33,35.19,81.88,15.68-9.83,8.24-20,15.22-40.42,15.22-17-1.07-33.66-11.63-44.25-30a21.81,21.81,0,0,1-5.57.71,20.65,20.65,0,0,1-3.44-.29v26.47h-3.46V337.46A22.15,22.15,0,0,1,245.45,336.38Zm0,42.79c10.4,0,18.82-9.19,18.82-20.53s-8.42-20.54-18.82-20.54a16.32,16.32,0,0,0-3.44.35V378.8A15.11,15.11,0,0,0,245.45,379.17Z" transform="translate(-238.55 -250.99)"/><path class="cls-1" d="M317,396.47h-2.88l-5.94-22.16H290.67l-5.94,22.16h-1.52l15.43-57.59,2.2-2.54Zm-9.21-23.63-8.34-31.12-8.34,31.12Z" transform="translate(-238.55 -250.99)"/><path class="cls-1" d="M356.82,336.44,344,369.63V407h-3.45V372l-12.84-35.59h3.68L342.74,368,355,336.44Z" transform="translate(-238.55 -250.99)"/><rect class="cls-1" x="318.71" y="285.05" width="7.16" height="7.16" transform="translate(-348.25 61.44) rotate(-45)"/></svg>